<mxfile host="app.diagrams.net" modified="2023-01-06T01:37:28.700Z" agent="5.0 (Windows NT 10.0; Win64; x64) AppleWebKit/537.36 (KHTML, like Gecko) Chrome/108.0.0.0 Safari/537.36" version="20.8.1" etag="dVpCpZ1dshFeiK4CyNs2" type="github">
  <diagram id="sP-747vcOoctSDmTaZ-J" name="第 1 页">
    <mxGraphModel dx="1434" dy="764" grid="1" gridSize="10" guides="1" tooltips="1" connect="1" arrows="1" fold="1" page="1" pageScale="1" pageWidth="2500" pageHeight="1600" math="0" shadow="0">
      <root>
        <mxCell id="0" />
        <mxCell id="1" parent="0" />
        <mxCell id="HRYTpgQa7MnitywBdzqk-1" value="" style="shape=flexArrow;endArrow=classic;html=1;rounded=0;sketch=1;curveFitting=1;jiggle=2;fillColor=#ffe6cc;strokeColor=#d79b00;" edge="1" parent="1">
          <mxGeometry width="50" height="50" relative="1" as="geometry">
            <mxPoint x="140" y="130" as="sourcePoint" />
            <mxPoint x="140" y="520" as="targetPoint" />
          </mxGeometry>
        </mxCell>
        <mxCell id="HRYTpgQa7MnitywBdzqk-6" value="" style="edgeStyle=orthogonalEdgeStyle;rounded=0;orthogonalLoop=1;jettySize=auto;html=1;fillColor=#dae8fc;strokeColor=#6c8ebf;sketch=1;curveFitting=1;jiggle=2;" edge="1" parent="1" source="HRYTpgQa7MnitywBdzqk-2" target="HRYTpgQa7MnitywBdzqk-5">
          <mxGeometry relative="1" as="geometry" />
        </mxCell>
        <mxCell id="HRYTpgQa7MnitywBdzqk-2" value="线程A" style="rounded=0;whiteSpace=wrap;html=1;sketch=1;curveFitting=1;jiggle=2;fillColor=#dae8fc;strokeColor=#6c8ebf;" vertex="1" parent="1">
          <mxGeometry x="200" y="150" width="110" height="40" as="geometry" />
        </mxCell>
        <mxCell id="HRYTpgQa7MnitywBdzqk-12" value="" style="edgeStyle=orthogonalEdgeStyle;rounded=0;orthogonalLoop=1;jettySize=auto;html=1;sketch=1;curveFitting=1;jiggle=2;fillColor=#d5e8d4;strokeColor=#82b366;" edge="1" parent="1" source="HRYTpgQa7MnitywBdzqk-3" target="HRYTpgQa7MnitywBdzqk-11">
          <mxGeometry relative="1" as="geometry" />
        </mxCell>
        <mxCell id="HRYTpgQa7MnitywBdzqk-3" value="线程B" style="rounded=0;whiteSpace=wrap;html=1;sketch=1;curveFitting=1;jiggle=2;fillColor=#d5e8d4;strokeColor=#82b366;" vertex="1" parent="1">
          <mxGeometry x="400" y="150" width="110" height="40" as="geometry" />
        </mxCell>
        <mxCell id="HRYTpgQa7MnitywBdzqk-17" style="edgeStyle=orthogonalEdgeStyle;rounded=0;sketch=1;orthogonalLoop=1;jettySize=auto;html=1;exitX=0.5;exitY=1;exitDx=0;exitDy=0;entryX=0.5;entryY=0;entryDx=0;entryDy=0;fillColor=#dae8fc;strokeColor=#6c8ebf;" edge="1" parent="1" source="HRYTpgQa7MnitywBdzqk-5" target="HRYTpgQa7MnitywBdzqk-7">
          <mxGeometry relative="1" as="geometry" />
        </mxCell>
        <mxCell id="HRYTpgQa7MnitywBdzqk-5" value="删除缓存" style="rounded=0;whiteSpace=wrap;html=1;fillColor=#dae8fc;strokeColor=#6c8ebf;sketch=1;curveFitting=1;jiggle=2;" vertex="1" parent="1">
          <mxGeometry x="200" y="230" width="110" height="40" as="geometry" />
        </mxCell>
        <mxCell id="HRYTpgQa7MnitywBdzqk-10" value="" style="edgeStyle=orthogonalEdgeStyle;rounded=0;orthogonalLoop=1;jettySize=auto;html=1;fillColor=#dae8fc;strokeColor=#6c8ebf;sketch=1;curveFitting=1;jiggle=2;" edge="1" parent="1" source="HRYTpgQa7MnitywBdzqk-7" target="HRYTpgQa7MnitywBdzqk-9">
          <mxGeometry relative="1" as="geometry" />
        </mxCell>
        <mxCell id="HRYTpgQa7MnitywBdzqk-7" value="更新数据库" style="rounded=0;whiteSpace=wrap;html=1;fillColor=#dae8fc;strokeColor=#6c8ebf;sketch=1;curveFitting=1;jiggle=2;" vertex="1" parent="1">
          <mxGeometry x="200" y="290" width="110" height="40" as="geometry" />
        </mxCell>
        <mxCell id="HRYTpgQa7MnitywBdzqk-9" value="删除缓存" style="rounded=0;whiteSpace=wrap;html=1;fillColor=#dae8fc;strokeColor=#6c8ebf;sketch=1;curveFitting=1;jiggle=2;" vertex="1" parent="1">
          <mxGeometry x="200" y="350" width="110" height="40" as="geometry" />
        </mxCell>
        <mxCell id="HRYTpgQa7MnitywBdzqk-14" value="" style="edgeStyle=orthogonalEdgeStyle;rounded=0;orthogonalLoop=1;jettySize=auto;html=1;sketch=1;curveFitting=1;jiggle=2;fillColor=#d5e8d4;strokeColor=#82b366;" edge="1" parent="1" source="HRYTpgQa7MnitywBdzqk-11" target="HRYTpgQa7MnitywBdzqk-13">
          <mxGeometry relative="1" as="geometry" />
        </mxCell>
        <mxCell id="HRYTpgQa7MnitywBdzqk-11" value="读取数据库" style="rounded=0;whiteSpace=wrap;html=1;sketch=1;curveFitting=1;jiggle=2;fillColor=#d5e8d4;strokeColor=#82b366;" vertex="1" parent="1">
          <mxGeometry x="400" y="260" width="110" height="40" as="geometry" />
        </mxCell>
        <mxCell id="HRYTpgQa7MnitywBdzqk-13" value="更新缓存" style="rounded=0;whiteSpace=wrap;html=1;sketch=1;curveFitting=1;jiggle=2;fillColor=#d5e8d4;strokeColor=#82b366;" vertex="1" parent="1">
          <mxGeometry x="400" y="400" width="110" height="40" as="geometry" />
        </mxCell>
        <mxCell id="HRYTpgQa7MnitywBdzqk-15" value="双删无法保证最终一致性" style="rounded=0;whiteSpace=wrap;html=1;sketch=1;curveFitting=1;jiggle=2;fillColor=#f8cecc;strokeColor=#b85450;" vertex="1" parent="1">
          <mxGeometry x="200" y="460" width="410" height="30" as="geometry" />
        </mxCell>
      </root>
    </mxGraphModel>
  </diagram>
</mxfile>
